<?xml version="1.0" encoding="utf-8"?>
<!-- Generator: Adobe Illustrator 16.0.0, SVG Export Plug-In . SVG Version: 6.00 Build 0)  -->
<!DOCTYPE svg PUBLIC "-//W3C//DTD SVG 1.1//EN" "http://www.w3.org/Graphics/SVG/1.1/DTD/svg11.dtd">
<svg version="1.1" id="Layer_1" xmlns="http://www.w3.org/2000/svg" xmlns:xlink="http://www.w3.org/1999/xlink" x="0px" y="0px"
	 width="90px" height="52px" viewBox="0 4 90 52" enable-background="new 0 4 90 52" xml:space="preserve">
<g>
	<rect id="rect1331" y="4.033" fill="#FF0000" fill-opacity="0.9825" width="90" height="51.967"/>
	<rect id="rect2206" y="4.033" fill="#0007A0" width="38.951" height="25.967"/>
	<path fill="#FFFFFF" d="M21.355,13.062l0.75-4.731l-3.045,3.882C19.91,12.309,20.694,12.609,21.355,13.062z"/>
	<path fill="#FFFFFF" d="M22.945,14.891l3.095-3.685l-4.626,1.896C22.069,13.565,22.598,14.18,22.945,14.891z"/>
	<path fill="#FFFFFF" d="M27.933,15.562l-4.927-0.544c0.252,0.561,0.392,1.177,0.392,1.824c0,0.142-0.008,0.281-0.021,0.42
		L27.933,15.562z"/>
	<path fill="#FFFFFF" d="M13.636,16.116c0.369-2.226,2.403-3.934,4.851-3.934c0.189,0,0.375,0.011,0.559,0.031L17.18,7.709
		l-0.592,4.819l-4-3.023l2.027,4.455l-5.057-0.721L13.636,16.116z"/>
	<path fill="#FFFFFF" d="M20.462,21.106l3.784,2.86l-1.921-4.222C21.832,20.329,21.193,20.8,20.462,21.106z"/>
	<path fill="#FFFFFF" d="M22.479,19.55l4.797,0.683l-3.924-2.769C23.244,18.233,22.936,18.945,22.479,19.55z"/>
	<path fill="#FFFFFF" d="M18.487,21.501c-0.208,0-0.413-0.014-0.614-0.037l1.782,4.298l0.56-4.561
		C19.677,21.395,19.095,21.501,18.487,21.501z"/>
	<path fill="#FFFFFF" d="M13.578,16.841c0-0.236,0.019-0.469,0.055-0.696l-4.729,1.763l4.979,0.55
		C13.686,17.955,13.578,17.411,13.578,16.841z"/>
	<path fill="#FFFFFF" d="M15.465,20.509l-0.733,4.632l2.908-3.709C16.829,21.295,16.087,20.972,15.465,20.509z"/>
	<path fill="#FFFFFF" d="M13.919,18.545l-3.123,3.719l4.535-1.857C14.711,19.911,14.222,19.273,13.919,18.545z"/>
	<path fill="#FFFFFF" d="M22.586,16.841c0-2.122-1.838-3.848-4.099-3.848c-2.259,0-4.099,1.726-4.099,3.848
		c0,2.122,1.839,3.849,4.099,3.849C20.748,20.69,22.586,18.963,22.586,16.841z"/>
</g>
</svg>
