<?xml version="1.0" encoding="utf-8"?>
<!-- Generator: Adobe Illustrator 21.1.0, SVG Export Plug-In . SVG Version: 6.00 Build 0)  -->
<svg version="1.1" id="圖層_1" xmlns="http://www.w3.org/2000/svg" xmlns:xlink="http://www.w3.org/1999/xlink" x="0px" y="0px"
	 viewBox="0 0 170 170" style="enable-background:new 0 0 170 170;" xml:space="preserve">
<style type="text/css">
	.st0{fill:#29166E;}
	.st1{display:none;}
	.st2{display:inline;}
	.st3{clip-path:url(#SVGID_2_);}
	.st4{clip-path:url(#SVGID_4_);fill:#FFFFFF;}
	.st5{clip-path:url(#SVGID_6_);}
	.st6{clip-path:url(#SVGID_8_);fill:#FFFFFF;}
	.st7{clip-path:url(#SVGID_10_);}
	.st8{clip-path:url(#SVGID_12_);fill:#FFFFFF;}
	.st9{clip-path:url(#SVGID_14_);}
	.st10{clip-path:url(#SVGID_16_);fill:#FFFFFF;}
	.st11{clip-path:url(#SVGID_18_);}
	.st12{clip-path:url(#SVGID_20_);fill:#FFFFFF;}
	.st13{clip-path:url(#SVGID_22_);}
	.st14{clip-path:url(#SVGID_24_);fill:#FFFFFF;}
	.st15{clip-path:url(#SVGID_26_);}
	.st16{clip-path:url(#SVGID_28_);fill:#FFFFFF;}
</style>
<path class="st0" d="M85,170L85,170c46.9,0,85-38.1,85-85v0c0-46.9-38.1-85-85-85h0C38.1,0,0,38.1,0,85v0C0,131.9,38.1,170,85,170z"
	/>
<g class="st1">
	<g class="st2">
		<defs>
			<path id="SVGID_1_" d="M106,88.1l-4.6-2.4c-1.7,1.4-3.8,2.5-6,3.2v4.9c-2,0.5-4.1,0.8-6.3,0.8c-2.2,0-4.3-0.3-6.3-0.8v-4.9
				c-2.2-0.7-4.2-1.8-6-3.2l-4.6,2.4c-3-2.7-5.2-6.2-6.3-10.1l4.5-2.4c-0.2-1-0.3-2.1-0.3-3.2c0-1.1,0.1-2.2,0.3-3.2l-4.5-2.4
				c1.1-3.9,3.3-7.4,6.3-10.1L77,59c1.7-1.4,3.8-2.5,6-3.2V51c2-0.5,4.1-0.8,6.3-0.8c2.2,0,4.3,0.3,6.3,0.8v4.9
				c2.2,0.7,4.2,1.8,6,3.2l4.6-2.4c3,2.7,5.2,6.2,6.3,10.1l-4.5,2.4c0.2,1,0.3,2.1,0.3,3.2c0,1.1-0.1,2.2-0.3,3.2l4.5,2.4
				C111.2,81.8,109,85.3,106,88.1z M129,71.9C129,51.5,111.2,35,89.3,35c-21.9,0-39.7,16.5-39.7,36.9c0,1.4,0.1,2.7,0.2,4
				c-2.9,5.5-8.4,15.4-8.4,15.6C41.2,92,41,92.7,41,93.4c0,2.6,2.3,4.7,5,4.7h5l0,13.3c0,3.6,3.1,6.5,7,6.5l14.5,0l4.9,15.1
				l47.2-13.3l-7.1-21.9C124.6,91.1,129,82,129,71.9z"/>
		</defs>
		<clipPath id="SVGID_2_">
			<use xlink:href="#SVGID_1_"  style="overflow:visible;"/>
		</clipPath>
		<g class="st3">
			<defs>
				<rect id="SVGID_3_" x="-477" y="-1270" width="1920" height="6147"/>
			</defs>
			<clipPath id="SVGID_4_">
				<use xlink:href="#SVGID_3_"  style="overflow:visible;"/>
			</clipPath>
			<rect x="36" y="30" class="st4" width="98" height="108"/>
		</g>
	</g>
	<g class="st2">
		<defs>
			<ellipse id="SVGID_5_" cx="89.5" cy="72" rx="8.5" ry="8"/>
		</defs>
		<clipPath id="SVGID_6_">
			<use xlink:href="#SVGID_5_"  style="overflow:visible;"/>
		</clipPath>
		<g class="st5">
			<defs>
				<rect id="SVGID_7_" x="-477" y="-1270" width="1920" height="6147"/>
			</defs>
			<clipPath id="SVGID_8_">
				<use xlink:href="#SVGID_7_"  style="overflow:visible;"/>
			</clipPath>
			<rect x="76" y="59" class="st6" width="27" height="26"/>
		</g>
	</g>
</g>
<g class="st1">
	<g class="st2">
		<defs>
			<path id="SVGID_9_" d="M124.5,46.6H88.1c0,1.2,0,12.6,0,14.1c0,2.1-2.5,3.4-4.5,2.3c-3.3-1.7-7.6,0.4-7.6,3.9
				c0,3.5,4.3,5.6,7.6,3.9c2-1,4.5,0.3,4.5,2.3v8.7h5.6C93.1,76.3,97.9,71,104.8,71c6.8,0,11.7,5.3,11.1,10.9c1.3,0,10.4,0,11.7,0
				V49.3C127.5,47.8,126.1,46.6,124.5,46.6z"/>
		</defs>
		<clipPath id="SVGID_10_">
			<use xlink:href="#SVGID_9_"  style="overflow:visible;"/>
		</clipPath>
		<g class="st7">
			<defs>
				<rect id="SVGID_11_" x="-875.5" y="-1270.4" width="1920" height="6147"/>
			</defs>
			<clipPath id="SVGID_12_">
				<use xlink:href="#SVGID_11_"  style="overflow:visible;"/>
			</clipPath>
			<rect x="71" y="41.6" class="st8" width="61.5" height="45.3"/>
		</g>
	</g>
	<g class="st2">
		<defs>
			<path id="SVGID_13_" d="M82.3,57.2c0-1.1,0-9.5,0-10.6H45.6c-1.7,0-3.1,1.2-3.1,2.8v33.2c1.4,0,14.2,0,15.9,0
				c2.3,0,3.8,2.3,2.7,4.1c-1.9,3,0.4,6.9,4.4,6.9c4,0,6.3-3.9,4.4-6.9c-1.2-1.8,0.3-4.1,2.7-4.1h9.8v-5.1
				C76.1,77.9,70,73.6,70,67.3C70,61,76.1,56.7,82.3,57.2z"/>
		</defs>
		<clipPath id="SVGID_14_">
			<use xlink:href="#SVGID_13_"  style="overflow:visible;"/>
		</clipPath>
		<g class="st9">
			<defs>
				<rect id="SVGID_15_" x="-875.5" y="-1270.4" width="1920" height="6147"/>
			</defs>
			<clipPath id="SVGID_16_">
				<use xlink:href="#SVGID_15_"  style="overflow:visible;"/>
			</clipPath>
			<rect x="37.5" y="41.6" class="st10" width="49.8" height="57"/>
		</g>
	</g>
	<g class="st2">
		<defs>
			<path id="SVGID_17_" d="M111.6,87.5c-2.4,0-3.8-2.3-2.7-4.1c1.9-3-0.4-6.9-4.4-6.9c-4,0-6.3,3.9-4.4,6.9c1.2,1.8-0.3,4.1-2.7,4.1
				h-9.8v5.1c6.2-0.5,12.2,3.9,12.2,10.1c0,6.2-6,10.6-12.2,10.1v10.6h36.7c1.7,0,3.1-1.2,3.1-2.8V87.5
				C126.1,87.5,113.3,87.5,111.6,87.5z"/>
		</defs>
		<clipPath id="SVGID_18_">
			<use xlink:href="#SVGID_17_"  style="overflow:visible;"/>
		</clipPath>
		<g class="st11">
			<defs>
				<rect id="SVGID_19_" x="-875.5" y="-1270.4" width="1920" height="6147"/>
			</defs>
			<clipPath id="SVGID_20_">
				<use xlink:href="#SVGID_19_"  style="overflow:visible;"/>
			</clipPath>
			<rect x="82.7" y="71.4" class="st12" width="49.8" height="57"/>
		</g>
	</g>
	<g class="st2">
		<defs>
			<path id="SVGID_21_" d="M86.5,99.2c-2,1-4.5-0.3-4.5-2.3v-8.7h-5.6C76.9,93.7,72.1,99,65.2,99c-6.8,0-11.7-5.3-11.1-10.9
				c-1.3,0-10.4,0-11.7,0v32.6c0,1.5,1.4,2.7,3,2.7h36.4v-14.1c0-2.1,2.5-3.4,4.5-2.3c3.3,1.7,7.6-0.4,7.6-3.9
				C94,99.5,89.8,97.5,86.5,99.2z"/>
		</defs>
		<clipPath id="SVGID_22_">
			<use xlink:href="#SVGID_21_"  style="overflow:visible;"/>
		</clipPath>
		<g class="st13">
			<defs>
				<rect id="SVGID_23_" x="-875.5" y="-1270.4" width="1920" height="6147"/>
			</defs>
			<clipPath id="SVGID_24_">
				<use xlink:href="#SVGID_23_"  style="overflow:visible;"/>
			</clipPath>
			<rect x="37.5" y="83.2" class="st14" width="61.5" height="45.3"/>
		</g>
	</g>
</g>
<g>
	<defs>
		<path id="SVGID_25_" d="M112.3,60.5v11.1c0,0.5,0,1.1-0.1,1.6h0.1c5.1,0,9.2-3.7,9.2-8.3v-4.4H112.3z M96.5,63.8l-7.3-0.5
			l-2.8-6.1c-0.5-1.2-2.3-1.2-2.9,0l-2.8,6.1l-7.3,0.5c-1.4,0.1-1.9,1.7-0.9,2.4l5.6,4.3L76.5,77c-0.3,1.2,1.1,2.2,2.3,1.5L85,75
			l6.2,3.5c1.2,0.7,2.6-0.3,2.3-1.5l-1.7-6.4l5.6-4.3C98.4,65.5,97.9,63.9,96.5,63.8z M77.4,115v8.5h15.1V115H77.4z M57.8,73.3
			c0-0.5-0.1-1.1-0.1-1.6V60.5h-9.2v4.4C48.6,69.5,52.7,73.3,57.8,73.3L57.8,73.3z M112.3,52h18.6v13c0,9.3-8.4,16.9-18.6,16.9h-2.4
			c-3.5,7-10.6,12.3-19.1,14v10.6h6.7c2.1,0,3.7,1.5,3.7,3.4v4.4h5.7V130H63.1v-15.8h5.7v-4.4c0-1.9,1.7-3.4,3.7-3.4h6.7V95.8
			c-8.5-1.7-15.6-6.9-19.1-14h-2.4c-10.3,0-18.6-7.6-18.6-16.9V52h18.6v-7.9h54.5L112.3,52L112.3,52z M42.3,116.8l4.3,4.8
			c0.1,0.2,0.1,0.4,0,0.5l-4.4,4.9c-0.4,0.4,0,1,0.5,1h15.6v-12.3H42.9C42.3,115.7,42,116.4,42.3,116.8z M123.4,121.7
			c-0.1,0.2-0.1,0.4,0,0.5l4.3,4.8c0.4,0.4,0.1,1.1-0.5,1.1h-15.5v-12.3h15.6c0.6,0,0.9,0.6,0.5,1L123.4,121.7z"/>
	</defs>
	<clipPath id="SVGID_26_">
		<use xlink:href="#SVGID_25_"  style="overflow:visible;"/>
	</clipPath>
	<g class="st15">
		<defs>
			<rect id="SVGID_27_" x="-1265.1" y="-1267.9" width="1920" height="6147"/>
		</defs>
		<clipPath id="SVGID_28_">
			<use xlink:href="#SVGID_27_"  style="overflow:visible;"/>
		</clipPath>
		<rect x="34.1" y="39.1" class="st16" width="101.8" height="95.9"/>
	</g>
</g>
</svg>
