<?xml version="1.0" encoding="iso-8859-1"?>
<!-- Generator: Adobe Illustrator 19.0.0, SVG Export Plug-In . SVG Version: 6.00 Build 0)  -->
<svg xmlns="http://www.w3.org/2000/svg" xmlns:xlink="http://www.w3.org/1999/xlink" version="1.1" id="Capa_1" x="0px" y="0px" viewBox="0 0 496 496" style="enable-background:new 0 0 496 496;" xml:space="preserve" width="512px" height="512px">
<g>
	<g>
		<g>
			<path d="M404,360v24h-29.232l-89.296-70.16l116.704-116.712C423.992,175.32,436,146.32,436,115.48C436,51.808,384.192,0,320.52,0     c-30.848,0-59.848,12.008-81.656,33.824L236,36.688l-2.864-2.864C211.328,12.008,182.328,0,151.48,0     C87.808,0,36,51.808,36,115.48c0,30.84,12.008,59.84,33.824,81.656l134.648,134.656c-0.184,1.536-0.472,3.04-0.472,4.632     c0,12.336,5.528,23.84,15.168,31.56l8.84,7.064l-18.36,9.184l-23.296,2.912L146.4,333.856     c-6.512-8.68-16.88-13.856-27.736-13.856c-19.024,0-34.496,15.408-34.64,34.4l-10.76-9.416c-6.6-5.8-15.096-8.984-23.896-8.984     h-1.08C28.28,336,12,352.272,12,372.28c0,9.688,3.776,18.808,10.632,25.656l46.808,46.816     c12.088,12.096,27.248,20.672,43.816,24.808l62.496,15.624c7.48,1.872,15.176,2.816,22.872,2.816h174.168L404,481.76V496h80V360     H404z M210.288,314.984L81.136,185.824C62.344,167.032,52,142.048,52,115.48C52,60.624,96.624,16,151.48,16     c26.576,0,51.552,10.344,70.344,29.136L236,59.312l14.176-14.176C268.968,26.344,293.944,16,320.52,16     C375.376,16,420,60.624,420,115.48c0,26.568-10.344,51.552-29.136,70.344L272.728,303.96c-6.912-5.096-15.336-7.96-23.936-7.96     h-4.368C230.024,296,217.456,303.624,210.288,314.984z M100,368v-13.336c0-10.288,8.376-18.664,18.664-18.664     c5.84,0,11.424,2.792,14.936,7.464l34.472,45.968l-17.68,2.208c-13.208,1.656-26.632-2.48-36.624-11.216L99.576,368H100z      M404,465.44L371.208,472H198.624c-6.392,0-12.784-0.792-18.992-2.336l-62.496-15.632C103.376,450.6,90.8,443.48,80.752,433.44     l-46.808-46.816C30.112,382.792,28,377.696,28,372.28C28,361.104,37.104,352,48.288,352h1.088c4.92,0,9.664,1.784,13.352,5.024     l40.512,35.448c13.416,11.728,31.416,17.248,49.144,15.048l61.976-7.752l27.152-13.576c2.8,2.936,4.936,6.448,6.232,10.336     c2.336,7.008,1.808,14.496-1.504,21.112l-1.392,2.792l14.312,7.16l1.392-2.792c5.216-10.432,6.056-22.264,2.368-33.32     c-2.664-8-7.552-15.016-14.144-20.296l-19.608-15.68c-5.832-4.672-9.168-11.632-9.168-19.08C220,322.952,230.952,312,244.416,312     h4.368c5.448,0,10.808,1.848,15.088,5.216L369.232,400H404V465.44z M468,480h-48V376h48V480z" fill="#FFFFFF"/>
			<rect x="436" y="392" width="16" height="16" fill="#FFFFFF"/>
			<path d="M68,115.48c0,11.44,2.256,22.512,6.712,32.904l14.704-6.296C85.824,133.688,84,124.736,84,115.48     C84,78.272,114.272,48,151.48,48V32C105.448,32,68,69.448,68,115.48z" fill="#FFFFFF"/>
			<path d="M82.272,162.208c2.976,4.384,6.392,8.52,10.168,12.296l11.312-11.312c-3.064-3.064-5.832-6.416-8.24-9.968     L82.272,162.208z" fill="#FFFFFF"/>
		</g>
	</g>
</g>
<g>
</g>
<g>
</g>
<g>
</g>
<g>
</g>
<g>
</g>
<g>
</g>
<g>
</g>
<g>
</g>
<g>
</g>
<g>
</g>
<g>
</g>
<g>
</g>
<g>
</g>
<g>
</g>
<g>
</g>
</svg>
