<?xml version="1.0" encoding="utf-8"?>
<!-- Generator: Adobe Illustrator 16.0.0, SVG Export Plug-In . SVG Version: 6.00 Build 0)  -->
<!DOCTYPE svg PUBLIC "-//W3C//DTD SVG 1.1//EN" "http://www.w3.org/Graphics/SVG/1.1/DTD/svg11.dtd">
<svg version="1.1" id="Layer_1" xmlns="http://www.w3.org/2000/svg" xmlns:xlink="http://www.w3.org/1999/xlink" x="0px" y="0px"
	 width="90px" height="52px" viewBox="0 0 90 52" enable-background="new 0 0 90 52" xml:space="preserve">
<g id="USA_4_">
	<g>
		<g>
			<defs>
				<rect id="SVGID_1_" x="-0.27" y="-0.249" width="90" height="52.498"/>
			</defs>
			<clipPath id="SVGID_2_">
				<use xlink:href="#SVGID_1_"  overflow="visible"/>
			</clipPath>
			<rect x="-0.27" y="48.21" clip-path="url(#SVGID_2_)" fill="#CB001C" width="90" height="4.039"/>
			<rect x="-0.27" y="44.171" clip-path="url(#SVGID_2_)" fill="#FFFFFF" width="90" height="4.039"/>
			<rect x="-0.27" y="40.14" clip-path="url(#SVGID_2_)" fill="#CB001C" width="90" height="4.031"/>
			<rect x="-0.27" y="36.097" clip-path="url(#SVGID_2_)" fill="#FFFFFF" width="90" height="4.043"/>
			<rect x="-0.27" y="32.058" clip-path="url(#SVGID_2_)" fill="#CB001C" width="90" height="4.039"/>
			<rect x="-0.27" y="28.022" clip-path="url(#SVGID_2_)" fill="#FFFFFF" width="90" height="4.036"/>
			<rect x="-0.27" y="23.977" clip-path="url(#SVGID_2_)" fill="#CB001C" width="90" height="4.045"/>
			<rect x="-0.27" y="19.945" clip-path="url(#SVGID_2_)" fill="#FFFFFF" width="90" height="4.032"/>
			<rect x="-0.27" y="15.908" clip-path="url(#SVGID_2_)" fill="#CB001C" width="90" height="4.037"/>
			<rect x="-0.27" y="11.87" clip-path="url(#SVGID_2_)" fill="#FFFFFF" width="90" height="4.039"/>
			<rect x="-0.27" y="7.827" clip-path="url(#SVGID_2_)" fill="#CB001C" width="90" height="4.043"/>
			<rect x="-0.27" y="3.794" clip-path="url(#SVGID_2_)" fill="#FFFFFF" width="90" height="4.033"/>
			<rect x="-0.27" y="-0.249" clip-path="url(#SVGID_2_)" fill="#CB001C" width="90" height="4.043"/>
			<rect x="-0.27" y="-0.249" clip-path="url(#SVGID_2_)" fill="#2A3560" width="41.1" height="28.271"/>
			<polygon clip-path="url(#SVGID_2_)" fill="#FFFFFF" points="3.443,2.866 3.794,3.941 4.919,3.941 4.009,4.6 4.353,5.668 
				3.443,5.009 2.532,5.668 2.889,4.6 1.977,3.941 3.092,3.941 			"/>
			<polygon clip-path="url(#SVGID_2_)" fill="#FFFFFF" points="3.443,7.586 3.794,8.654 4.919,8.654 4.009,9.313 4.353,10.382 
				3.443,9.722 2.532,10.382 2.889,9.313 1.977,8.654 3.092,8.654 			"/>
			<polygon clip-path="url(#SVGID_2_)" fill="#FFFFFF" points="3.443,12.31 3.794,13.373 4.919,13.373 4.009,14.033 4.353,15.106 
				3.443,14.441 2.532,15.106 2.889,14.033 1.977,13.373 3.092,13.373 			"/>
			<polygon clip-path="url(#SVGID_2_)" fill="#FFFFFF" points="3.443,17.023 3.794,18.091 4.919,18.091 4.009,18.751 4.353,19.819 
				3.443,19.161 2.532,19.819 2.889,18.751 1.977,18.091 3.092,18.091 			"/>
			<polygon clip-path="url(#SVGID_2_)" fill="#FFFFFF" points="3.443,21.742 3.794,22.815 4.919,22.815 4.009,23.469 4.353,24.538 
				3.443,23.877 2.532,24.538 2.889,23.469 1.977,22.815 3.092,22.815 			"/>
			<polygon clip-path="url(#SVGID_2_)" fill="#FFFFFF" points="6.731,5.355 7.067,6.423 8.199,6.423 7.293,7.084 7.633,8.151 
				6.731,7.492 5.825,8.151 6.167,7.084 5.259,6.423 6.387,6.423 			"/>
			<polygon clip-path="url(#SVGID_2_)" fill="#FFFFFF" points="6.731,10.073 7.067,11.137 8.199,11.137 7.293,11.802 7.633,12.864 
				6.731,12.216 5.825,12.864 6.167,11.802 5.259,11.137 6.387,11.137 			"/>
			<polygon clip-path="url(#SVGID_2_)" fill="#FFFFFF" points="6.731,14.792 7.067,15.86 8.199,15.86 7.293,16.52 7.633,17.587 
				6.731,16.928 5.825,17.587 6.167,16.52 5.259,15.86 6.387,15.86 			"/>
			<polygon clip-path="url(#SVGID_2_)" fill="#FFFFFF" points="6.731,19.516 7.067,20.581 8.199,20.581 7.293,21.239 7.633,22.302 
				6.731,21.642 5.825,22.302 6.167,21.239 5.259,20.581 6.387,20.581 			"/>
			<polygon clip-path="url(#SVGID_2_)" fill="#FFFFFF" points="10.051,2.866 10.403,3.941 11.528,3.941 10.618,4.6 10.969,5.668 
				10.051,5.009 9.151,5.668 9.497,4.6 8.585,3.941 9.707,3.941 			"/>
			<polygon clip-path="url(#SVGID_2_)" fill="#FFFFFF" points="10.051,7.586 10.403,8.654 11.528,8.654 10.618,9.313 10.969,10.382 
				10.051,9.722 9.151,10.382 9.497,9.313 8.585,8.654 9.707,8.654 			"/>
			<polygon clip-path="url(#SVGID_2_)" fill="#FFFFFF" points="10.051,12.31 10.403,13.373 11.528,13.373 10.618,14.033 
				10.969,15.106 10.051,14.441 9.151,15.106 9.497,14.033 8.585,13.373 9.707,13.373 			"/>
			<polygon clip-path="url(#SVGID_2_)" fill="#FFFFFF" points="10.051,17.023 10.403,18.091 11.528,18.091 10.618,18.751 
				10.969,19.819 10.051,19.161 9.151,19.819 9.497,18.751 8.585,18.091 9.707,18.091 			"/>
			<polygon clip-path="url(#SVGID_2_)" fill="#FFFFFF" points="10.051,21.742 10.403,22.815 11.528,22.815 10.618,23.469 
				10.969,24.538 10.051,23.877 9.151,24.538 9.497,23.469 8.585,22.815 9.707,22.815 			"/>
			<polygon clip-path="url(#SVGID_2_)" fill="#FFFFFF" points="13.341,5.355 13.687,6.423 14.818,6.423 13.902,7.084 14.253,8.151 
				13.341,7.492 12.435,8.151 12.786,7.084 11.869,6.423 12.995,6.423 			"/>
			<polygon clip-path="url(#SVGID_2_)" fill="#FFFFFF" points="13.341,10.073 13.687,11.137 14.818,11.137 13.902,11.802 
				14.253,12.864 13.341,12.216 12.435,12.864 12.786,11.802 11.869,11.137 12.995,11.137 			"/>
			<polygon clip-path="url(#SVGID_2_)" fill="#FFFFFF" points="13.341,14.792 13.687,15.86 14.818,15.86 13.902,16.52 
				14.253,17.587 13.341,16.928 12.435,17.587 12.786,16.52 11.869,15.86 12.995,15.86 			"/>
			<polygon clip-path="url(#SVGID_2_)" fill="#FFFFFF" points="13.341,19.516 13.687,20.581 14.818,20.581 13.902,21.239 
				14.253,22.302 13.341,21.642 12.435,22.302 12.786,21.239 11.869,20.581 12.995,20.581 			"/>
			<polygon clip-path="url(#SVGID_2_)" fill="#FFFFFF" points="16.672,2.866 17.024,3.941 18.138,3.941 17.227,4.6 17.588,5.668 
				16.672,5.009 15.76,5.668 16.106,4.6 15.205,3.941 16.326,3.941 			"/>
			<polygon clip-path="url(#SVGID_2_)" fill="#FFFFFF" points="16.672,7.586 17.024,8.654 18.138,8.654 17.227,9.313 17.588,10.382 
				16.672,9.722 15.76,10.382 16.106,9.313 15.205,8.654 16.326,8.654 			"/>
			<polygon clip-path="url(#SVGID_2_)" fill="#FFFFFF" points="16.672,12.31 17.024,13.373 18.138,13.373 17.227,14.033 
				17.588,15.106 16.672,14.441 15.76,15.106 16.106,14.033 15.205,13.373 16.326,13.373 			"/>
			<polygon clip-path="url(#SVGID_2_)" fill="#FFFFFF" points="16.672,17.023 17.024,18.091 18.138,18.091 17.227,18.751 
				17.588,19.819 16.672,19.161 15.76,19.819 16.106,18.751 15.205,18.091 16.326,18.091 			"/>
			<polygon clip-path="url(#SVGID_2_)" fill="#FFFFFF" points="16.672,21.742 17.024,22.815 18.138,22.815 17.227,23.469 
				17.588,24.538 16.672,23.877 15.76,24.538 16.106,23.469 15.205,22.815 16.326,22.815 			"/>
			<polygon clip-path="url(#SVGID_2_)" fill="#FFFFFF" points="19.96,5.355 20.306,6.423 21.428,6.423 20.522,7.084 20.861,8.151 
				19.96,7.492 19.055,8.151 19.394,7.084 18.488,6.423 19.609,6.423 			"/>
			<polygon clip-path="url(#SVGID_2_)" fill="#FFFFFF" points="19.96,10.073 20.306,11.137 21.428,11.137 20.522,11.802 
				20.861,12.864 19.96,12.216 19.055,12.864 19.394,11.802 18.488,11.137 19.609,11.137 			"/>
			<polygon clip-path="url(#SVGID_2_)" fill="#FFFFFF" points="19.96,14.792 20.306,15.86 21.428,15.86 20.522,16.52 20.861,17.587 
				19.96,16.928 19.055,17.587 19.394,16.52 18.488,15.86 19.609,15.86 			"/>
			<polygon clip-path="url(#SVGID_2_)" fill="#FFFFFF" points="19.96,19.516 20.306,20.581 21.428,20.581 20.522,21.239 
				20.861,22.302 19.96,21.642 19.055,22.302 19.394,21.239 18.488,20.581 19.609,20.581 			"/>
			<polygon clip-path="url(#SVGID_2_)" fill="#FFFFFF" points="23.28,2.866 23.632,3.941 24.753,3.941 23.847,4.6 24.198,5.668 
				23.28,5.009 22.379,5.668 22.721,4.6 21.815,3.941 22.936,3.941 			"/>
			<polygon clip-path="url(#SVGID_2_)" fill="#FFFFFF" points="23.28,7.586 23.632,8.654 24.753,8.654 23.847,9.313 24.198,10.382 
				23.28,9.722 22.379,10.382 22.721,9.313 21.815,8.654 22.936,8.654 			"/>
			<polygon clip-path="url(#SVGID_2_)" fill="#FFFFFF" points="23.28,12.31 23.632,13.373 24.753,13.373 23.847,14.033 
				24.198,15.106 23.28,14.441 22.379,15.106 22.721,14.033 21.815,13.373 22.936,13.373 			"/>
			<polygon clip-path="url(#SVGID_2_)" fill="#FFFFFF" points="23.28,17.023 23.632,18.091 24.753,18.091 23.847,18.751 
				24.198,19.819 23.28,19.161 22.379,19.819 22.721,18.751 21.815,18.091 22.936,18.091 			"/>
			<polygon clip-path="url(#SVGID_2_)" fill="#FFFFFF" points="23.28,21.742 23.632,22.815 24.753,22.815 23.847,23.469 
				24.198,24.538 23.28,23.877 22.379,24.538 22.721,23.469 21.815,22.815 22.936,22.815 			"/>
			<polygon clip-path="url(#SVGID_2_)" fill="#FFFFFF" points="26.57,5.355 26.916,6.423 28.047,6.423 27.135,7.084 27.481,8.151 
				26.57,7.492 25.664,8.151 26.015,7.084 25.104,6.423 26.229,6.423 			"/>
			<polygon clip-path="url(#SVGID_2_)" fill="#FFFFFF" points="26.57,10.073 26.916,11.137 28.047,11.137 27.135,11.802 
				27.481,12.864 26.57,12.216 25.664,12.864 26.015,11.802 25.104,11.137 26.229,11.137 			"/>
			<polygon clip-path="url(#SVGID_2_)" fill="#FFFFFF" points="26.57,14.792 26.916,15.86 28.047,15.86 27.135,16.52 27.481,17.587 
				26.57,16.928 25.664,17.587 26.015,16.52 25.104,15.86 26.229,15.86 			"/>
			<polygon clip-path="url(#SVGID_2_)" fill="#FFFFFF" points="26.57,19.516 26.916,20.581 28.047,20.581 27.135,21.239 
				27.481,22.302 26.57,21.642 25.664,22.302 26.015,21.239 25.104,20.581 26.229,20.581 			"/>
			<polygon clip-path="url(#SVGID_2_)" fill="#FFFFFF" points="29.9,2.866 30.251,3.941 31.373,3.941 30.467,4.6 30.808,5.668 
				29.9,5.009 29,5.668 29.34,4.6 28.433,3.941 29.554,3.941 			"/>
			<polygon clip-path="url(#SVGID_2_)" fill="#FFFFFF" points="29.9,7.586 30.251,8.654 31.373,8.654 30.467,9.313 30.808,10.382 
				29.9,9.722 29,10.382 29.34,9.313 28.433,8.654 29.554,8.654 			"/>
			<polygon clip-path="url(#SVGID_2_)" fill="#FFFFFF" points="29.9,12.31 30.251,13.373 31.373,13.373 30.467,14.033 
				30.808,15.106 29.9,14.441 29,15.106 29.34,14.033 28.433,13.373 29.554,13.373 			"/>
			<polygon clip-path="url(#SVGID_2_)" fill="#FFFFFF" points="29.9,17.023 30.251,18.091 31.373,18.091 30.467,18.751 
				30.808,19.819 29.9,19.161 29,19.819 29.34,18.751 28.433,18.091 29.554,18.091 			"/>
			<polygon clip-path="url(#SVGID_2_)" fill="#FFFFFF" points="29.9,21.742 30.251,22.815 31.373,22.815 30.467,23.469 
				30.808,24.538 29.9,23.877 29,24.538 29.34,23.469 28.433,22.815 29.554,22.815 			"/>
			<polygon clip-path="url(#SVGID_2_)" fill="#FFFFFF" points="33.189,5.355 33.529,6.423 34.656,6.423 33.755,7.084 34.091,8.151 
				33.189,7.492 32.274,8.151 32.623,7.084 31.723,6.423 32.838,6.423 			"/>
			<polygon clip-path="url(#SVGID_2_)" fill="#FFFFFF" points="33.189,10.073 33.529,11.137 34.656,11.137 33.755,11.802 
				34.091,12.864 33.189,12.216 32.274,12.864 32.623,11.802 31.723,11.137 32.838,11.137 			"/>
			<polygon clip-path="url(#SVGID_2_)" fill="#FFFFFF" points="33.189,14.792 33.529,15.86 34.656,15.86 33.755,16.52 
				34.091,17.587 33.189,16.928 32.274,17.587 32.623,16.52 31.723,15.86 32.838,15.86 			"/>
			<polygon clip-path="url(#SVGID_2_)" fill="#FFFFFF" points="33.189,19.516 33.529,20.581 34.656,20.581 33.755,21.239 
				34.091,22.302 33.189,21.642 32.274,22.302 32.623,21.239 31.723,20.581 32.838,20.581 			"/>
			<polygon clip-path="url(#SVGID_2_)" fill="#FFFFFF" points="36.51,2.866 36.866,3.941 37.981,3.941 37.076,4.6 37.427,5.668 
				36.51,5.009 35.608,5.668 35.949,4.6 35.043,3.941 36.164,3.941 			"/>
			<polygon clip-path="url(#SVGID_2_)" fill="#FFFFFF" points="36.51,7.586 36.866,8.654 37.981,8.654 37.076,9.313 37.427,10.382 
				36.51,9.722 35.608,10.382 35.949,9.313 35.043,8.654 36.164,8.654 			"/>
			<polygon clip-path="url(#SVGID_2_)" fill="#FFFFFF" points="36.51,12.31 36.866,13.373 37.981,13.373 37.076,14.033 
				37.427,15.106 36.51,14.441 35.608,15.106 35.949,14.033 35.043,13.373 36.164,13.373 			"/>
			<polygon clip-path="url(#SVGID_2_)" fill="#FFFFFF" points="36.51,17.023 36.866,18.091 37.981,18.091 37.076,18.751 
				37.427,19.819 36.51,19.161 35.608,19.819 35.949,18.751 35.043,18.091 36.164,18.091 			"/>
			<polygon clip-path="url(#SVGID_2_)" fill="#FFFFFF" points="36.51,21.742 36.866,22.815 37.981,22.815 37.076,23.469 
				37.427,24.538 36.51,23.877 35.608,24.538 35.949,23.469 35.043,22.815 36.164,22.815 			"/>
		</g>
	</g>
</g>
</svg>
