<?xml version="1.0" encoding="utf-8"?>
<!-- Generator: Adobe Illustrator 21.1.0, SVG Export Plug-In . SVG Version: 6.00 Build 0)  -->
<svg version="1.1" id="圖層_1" xmlns="http://www.w3.org/2000/svg" xmlns:xlink="http://www.w3.org/1999/xlink" x="0px" y="0px"
	 viewBox="0 0 18 18" style="enable-background:new 0 0 18 18;" xml:space="preserve">
<style type="text/css">
	.st0{fill:none;}
	.st1{fill:#D13636;}
</style>
<path class="st0" d="M0,0h18v18H0V0z"/>
<path class="st1" d="M9,5.2v-3H1.5v13.5h15V5.2H9z M4.5,14.2H3v-1.5h1.5V14.2z M4.5,11.2H3V9.7h1.5V11.2z M4.5,8.2H3V6.7h1.5V8.2z
	 M4.5,5.2H3V3.7h1.5V5.2z M7.5,14.2H6v-1.5h1.5V14.2z M7.5,11.2H6V9.7h1.5V11.2z M7.5,8.2H6V6.7h1.5V8.2z M7.5,5.2H6V3.7h1.5V5.2z
	 M15,14.2H9v-1.5h1.5v-1.5H9V9.7h1.5V8.2H9V6.7h6V14.2z M13.5,8.2H12v1.5h1.5V8.2z M13.5,11.2H12v1.5h1.5V11.2z"/>
</svg>
