<?xml version="1.0" encoding="utf-8"?>
<!-- Generator: Adobe Illustrator 21.1.0, SVG Export Plug-In . SVG Version: 6.00 Build 0)  -->
<svg version="1.1" id="圖層_1" xmlns="http://www.w3.org/2000/svg" xmlns:xlink="http://www.w3.org/1999/xlink" x="0px" y="0px"
	 viewBox="0 0 18 18" style="enable-background:new 0 0 18 18;" xml:space="preserve">
<style type="text/css">
	.st0{fill:none;}
	.st1{fill:#D13636;}
</style>
<path class="st0" d="M0,0h18v18H0V0z"/>
<path class="st1" d="M5,8.1c1,2.1,2.8,3.8,4.9,4.9l1.6-1.7c0.2-0.2,0.5-0.3,0.8-0.2c0.8,0.3,1.7,0.4,2.7,0.4c0.4,0,0.8,0.3,0.8,0.8
	V15c0,0.4-0.3,0.8-0.8,0.8C8,15.7,2.2,10,2.2,3c0-0.4,0.3-0.8,0.8-0.8h2.6C6,2.2,6.4,2.6,6.4,3c0,0.9,0.1,1.8,0.4,2.7
	c0.1,0.3,0,0.6-0.2,0.8L5,8.1z"/>
</svg>
