<?xml version="1.0" encoding="utf-8"?>
<!-- Generator: Adobe Illustrator 21.1.0, SVG Export Plug-In . SVG Version: 6.00 Build 0)  -->
<svg version="1.1" id="圖層_1" xmlns="http://www.w3.org/2000/svg" xmlns:xlink="http://www.w3.org/1999/xlink" x="0px" y="0px"
	 viewBox="0 0 32 32" style="enable-background:new 0 0 32 32;" xml:space="preserve">
<style type="text/css">
	.st0{fill:#FFFFFF;}
</style>
<g>
	<path class="st0" d="M13.2,8.1c-0.4-4.4-5-6.6-5.2-6.6C7.9,1.3,7.7,1.3,7.5,1.3c-5.3,0.9-6.1,4-6.1,4.1c0,0.2,0,0.4,0,0.5
		c6.3,19.6,19.4,23.2,23.7,24.4c0.3,0.1,0.6,0.2,0.8,0.2c0.1,0,0.2,0,0.3,0c0.1,0,0.3,0,0.4-0.1c0.1-0.1,3.2-1.5,4-6.3
		c0-0.2,0-0.4-0.1-0.6c-0.1-0.1-1.7-3.2-6.2-4.3c-0.3-0.1-0.6,0-0.9,0.2c-1.4,1.2-3.4,2.5-4.2,2.6c-5.7-2.8-8.9-8.1-9-9.1
		c-0.1-0.6,1.2-2.6,2.7-4.2C13.1,8.6,13.2,8.3,13.2,8.1z"/>
</g>
</svg>
