<?xml version="1.0" encoding="utf-8"?>
<!-- Generator: Adobe Illustrator 21.1.0, SVG Export Plug-In . SVG Version: 6.00 Build 0)  -->
<svg version="1.1" id="圖層_1" xmlns="http://www.w3.org/2000/svg" xmlns:xlink="http://www.w3.org/1999/xlink" x="0px" y="0px"
	 viewBox="0 0 32 32" style="enable-background:new 0 0 32 32;" xml:space="preserve">
<style type="text/css">
	.st0{fill:#FFFFFF;}
</style>
<g>
	<path class="st0" d="M30,8H2c-1.1,0-2,0.9-2,2v20c0,1.1,0.9,2,2,2h28c1.1,0,2-0.9,2-2V10C32,8.9,31.1,8,30,8z M11.4,22.1l4.6,3.2
		l4.6-3.2l8,8H3.4L11.4,22.1z M2,28.6V15.7l7.7,5.2L2,28.6z M22.3,20.9l7.7-5.3v13L22.3,20.9z M30,10v3.2l0-0.1l-14,9.6L2,13.3V10
		H30z"/>
</g>
</svg>
