<?xml version="1.0" encoding="utf-8"?>
<!-- Generator: Adobe Illustrator 21.1.0, SVG Export Plug-In . SVG Version: 6.00 Build 0)  -->
<svg version="1.1" id="圖層_1" xmlns="http://www.w3.org/2000/svg" xmlns:xlink="http://www.w3.org/1999/xlink" x="0px" y="0px"
	 viewBox="0 0 170 170" style="enable-background:new 0 0 170 170;" xml:space="preserve">
<style type="text/css">
	.st0{fill:#29166E;}
	.st1{clip-path:url(#SVGID_2_);}
	.st2{clip-path:url(#SVGID_4_);fill:#FFFFFF;}
	.st3{clip-path:url(#SVGID_6_);}
	.st4{clip-path:url(#SVGID_8_);fill:#FFFFFF;}
</style>
<path class="st0" d="M85,170L85,170c46.9,0,85-38.1,85-85v0c0-46.9-38.1-85-85-85h0C38.1,0,0,38.1,0,85v0C0,131.9,38.1,170,85,170z"
	/>
<g>
	<defs>
		<path id="SVGID_1_" d="M106,88.1l-4.6-2.4c-1.7,1.4-3.8,2.5-6,3.2v4.9c-2,0.5-4.1,0.8-6.3,0.8c-2.2,0-4.3-0.3-6.3-0.8v-4.9
			c-2.2-0.7-4.2-1.8-6-3.2l-4.6,2.4c-3-2.7-5.2-6.2-6.3-10.1l4.5-2.4c-0.2-1-0.3-2.1-0.3-3.2c0-1.1,0.1-2.2,0.3-3.2l-4.5-2.4
			c1.1-3.9,3.3-7.4,6.3-10.1L77,59c1.7-1.4,3.8-2.5,6-3.2V51c2-0.5,4.1-0.8,6.3-0.8c2.2,0,4.3,0.3,6.3,0.8v4.9
			c2.2,0.7,4.2,1.8,6,3.2l4.6-2.4c3,2.7,5.2,6.2,6.3,10.1l-4.5,2.4c0.2,1,0.3,2.1,0.3,3.2c0,1.1-0.1,2.2-0.3,3.2l4.5,2.4
			C111.2,81.8,109,85.3,106,88.1z M129,71.9C129,51.5,111.2,35,89.3,35c-21.9,0-39.7,16.5-39.7,36.9c0,1.4,0.1,2.7,0.2,4
			c-2.9,5.5-8.4,15.4-8.4,15.6C41.2,92,41,92.7,41,93.4c0,2.6,2.3,4.7,5,4.7h5l0,13.3c0,3.6,3.1,6.5,7,6.5l14.5,0l4.9,15.1
			l47.2-13.3l-7.1-21.9C124.6,91.1,129,82,129,71.9z"/>
	</defs>
	<clipPath id="SVGID_2_">
		<use xlink:href="#SVGID_1_"  style="overflow:visible;"/>
	</clipPath>
	<g class="st1">
		<defs>
			<rect id="SVGID_3_" x="-477" y="-1270" width="1920" height="6147"/>
		</defs>
		<clipPath id="SVGID_4_">
			<use xlink:href="#SVGID_3_"  style="overflow:visible;"/>
		</clipPath>
		<rect x="36" y="30" class="st2" width="98" height="108"/>
	</g>
</g>
<g>
	<defs>
		<ellipse id="SVGID_5_" cx="89.5" cy="72" rx="8.5" ry="8"/>
	</defs>
	<clipPath id="SVGID_6_">
		<use xlink:href="#SVGID_5_"  style="overflow:visible;"/>
	</clipPath>
	<g class="st3">
		<defs>
			<rect id="SVGID_7_" x="-477" y="-1270" width="1920" height="6147"/>
		</defs>
		<clipPath id="SVGID_8_">
			<use xlink:href="#SVGID_7_"  style="overflow:visible;"/>
		</clipPath>
		<rect x="76" y="59" class="st4" width="27" height="26"/>
	</g>
</g>
</svg>
